# xmcd
#
# Track frame offsets: 
#        150
#        19974
#        36223
#        49020
#        71126
#        91324
#        107618
#        123805
#        135697
#        151869
#        168522
#        183450
#        198317
#        211791
#        226812
#        244211
#        257440
#        272757
#        286366
#        297638
#        309418
#        320529
#        338901
#
# Disc length: 4661 seconds
#
# Revision: 2
# Processed by: cddbd v1.5.2PL0 Copyright (c) Steve Scherf et al.
# Submitted via: ExactAudioCopy v0.90b4
#
DISCID=4f123317
DTITLE=Paul Kelly - Songs From The South (Paul Kelly's Greatest Hits 1
DTITLE=985 - 2019) [CD2]
DYEAR=2019
DGENRE=Folk/Rock
TTITLE0=Our Sunshine
TTITLE1=Every Fucking City
TTITLE2=If I Could Start Today Again
TTITLE3=Midnight Rain
TTITLE4=The Oldest Story In The Book
TTITLE5=Your Lovin' Is On My Mind
TTITLE6=They Thought I Was Asleep
TTITLE7=Meet Me In The Middle Of The Air
TTITLE8=You're 39, You're Beautiful And You're Mine
TTITLE9=God Told Me To
TTITLE10=Time and Tide
TTITLE11=I'm On Your Side
TTITLE12=Thank You
TTITLE13=Sonnet 18
TTITLE14=Rising Moon
TTITLE15=Firewood And Candles
TTITLE16=Finally Something Good
TTITLE17=Letter In The Rain
TTITLE18=With The One I Love
TTITLE19=A Bastard Like Me (For Charlie Perkins)
TTITLE20=And Death Shall Have No Dominion
TTITLE21=Every Day My Mother's Voice
TTITLE22=When We're Both Old and Mad
EXTD=
EXTT0=
EXTT1=
EXTT2=
EXTT3=
EXTT4=
EXTT5=
EXTT6=
EXTT7=
EXTT8=
EXTT9=
EXTT10=
EXTT11=
EXTT12=
EXTT13=
EXTT14=
EXTT15=
EXTT16=
EXTT17=
EXTT18=
EXTT19=
EXTT20=
EXTT21=
EXTT22=
PLAYORDER=
